<?xml version="1.0" encoding="UTF-8"?>
<svg xmlns="http://www.w3.org/2000/svg" viewBox="0 0 1024 1024">
  <defs>
    <linearGradient id="b" x1="0" y1="0" x2="1" y2="1">
      <stop offset="0%" stop-color="#2d8fd8"/>
      <stop offset="100%" stop-color="#1e78c8"/>
    </linearGradient>
    <linearGradient id="o" x1="0" y1="0" x2="1" y2="1">
      <stop offset="0%" stop-color="#ffad2f"/>
      <stop offset="100%" stop-color="#ff8c00"/>
    </linearGradient>
  </defs>

  <!-- outer border with slight rounding -->
  <rect x="140" y="140" width="744" height="744" rx="18" ry="18"
        fill="none" stroke="url(#b)" stroke-width="68"/>

  <!-- blue shape -->
  <path fill="url(#b)"
        d="M277 342 L425 261 L464 261 L349 378
           L349 474 L565 596 L512 649 L277 518 Z"/>
  <path fill="url(#b)"
        d="M489 384 L747 527 L747 698 L596 780 L533 780
           L628 687 L674 659 L674 567 L439 435 Z"/>

  <!-- orange shape -->
  <path fill="url(#o)"
        d="M491 261 L747 261 L747 496 L674 455 L674 331
           L511 331 L407 439 L651 578 L651 629 L503 780
           L277 780 L277 543 L349 585 L349 708 L484 708
           L597 591 L371 462 L371 386 Z"/>
</svg>